<svg width="473" height="100" viewBox="0 0 473 100" version="1.1" xmlns="http://www.w3.org/2000/svg" xmlns:xlink="http://www.w3.org/1999/xlink">
<g id="Canvas" fill="none">
<g id="785325152">
<g id="Vector">
<path d="M 22.2772 18.2583L 5.55546 18.2583L 5.55546 4.70897L 23.2358 4.70897L 23.2358 0.0540306L 5.29235e-06 0.0540306L 5.29235e-06 42.957L 24.1956 42.957L 24.1956 38.3032L 5.55546 38.3032L 5.55546 22.8412L 22.2772 22.8412L 22.2772 18.2583ZM 31.2348 42.957L 36.718 42.957L 36.718 24.3745C 36.718 23.4187 36.8444 22.4618 37.1708 21.6322C 38.0572 18.8358 40.6091 16.0395 44.1196 16.0395C 48.4082 16.0395 50.5627 19.5935 50.5627 24.5005L 50.5627 42.957L 56.0639 42.957L 56.0639 23.923C 56.0639 22.9133 56.2445 21.8843 56.5155 21.1267C 57.4573 18.3844 59.9538 16.0395 63.1392 16.0395C 67.6818 16.0395 69.8532 19.5935 69.8532 25.5115L 69.8532 42.957L 75.3364 42.957L 75.3364 24.8259C 75.3364 14.1269 69.2739 11.4566 65.1841 11.4566C 62.2528 11.4566 60.2079 12.2142 58.3617 13.6214C 57.0767 14.5771 55.864 15.9135 54.9054 17.6268L 54.7789 17.6268C 53.4397 14.0008 50.2543 11.4566 46.0381 11.4566C 40.9355 11.4566 38.0572 14.1809 36.3386 17.1213L 36.1387 17.1213L 35.8858 12.1602L 30.9638 12.1602C 31.1625 14.7044 31.2348 17.3026 31.2348 20.4952L 31.2348 42.957ZM 109.304 28.5779C 109.358 28.0004 109.484 27.1168 109.484 25.9617C 109.484 20.297 106.806 11.4566 96.726 11.4566C 87.7142 11.4566 82.231 18.7638 82.231 28.0545C 82.231 37.3643 87.9141 43.5885 97.4317 43.5885C 102.337 43.5885 105.721 42.5788 107.712 41.6759L 106.752 37.6717C 104.635 38.5734 102.21 39.259 98.1928 39.259C 92.582 39.259 87.7142 36.1553 87.5877 28.5779L 109.304 28.5779ZM 87.66 24.5546C 88.1128 20.6764 90.5913 15.462 96.2744 15.462C 102.59 15.462 104.128 21.0006 104.073 24.5546L 87.66 24.5546ZM 116.452 42.957L 121.99 42.957L 121.99 26.5392C 121.99 25.5835 122.134 24.6986 122.261 23.923C 123.021 19.7195 125.826 16.7431 129.789 16.7431C 130.549 16.7431 131.128 16.7971 131.707 16.9232L 131.707 11.6367C 131.182 11.5107 130.749 11.4566 130.097 11.4566C 126.333 11.4566 122.948 14.0549 121.555 18.2043L 121.302 18.2043L 121.102 12.1602L 116.18 12.1602C 116.379 15.0106 116.452 18.1323 116.452 21.7582L 116.452 42.957ZM 137.335 42.957L 142.945 42.957L 142.945 24.4285C 142.945 23.4728 143.072 22.5339 143.325 21.8303C 144.285 18.7098 147.162 16.0936 150.853 16.0936C 156.156 16.0936 158.02 20.243 158.02 25.2041L 158.02 42.957L 163.63 42.957L 163.63 24.5546C 163.63 14.0008 156.988 11.4566 152.718 11.4566C 147.614 11.4566 144.031 14.307 142.493 17.2474L 142.367 17.2474L 142.058 12.1602L 137.064 12.1602C 137.263 14.7044 137.335 17.3026 137.335 20.4952L 137.335 42.957ZM 185.853 11.4566C 177.293 11.4566 170.524 17.5007 170.524 27.8023C 170.524 37.5444 176.967 43.6605 185.346 43.6605C 192.802 43.6605 200.728 38.6995 200.728 27.2969C 200.728 17.8789 194.72 11.4566 185.853 11.4566ZM 185.725 15.6601C 192.367 15.6601 194.973 22.2637 194.973 27.4962C 194.973 34.4239 190.955 39.4571 185.599 39.4571C 180.097 39.4571 176.206 34.3699 176.206 27.6222C 176.206 21.7582 179.085 15.6601 185.725 15.6601ZM 209.089 4.76299L 209.089 12.1602L 204.311 12.1602L 204.311 16.4177L 209.089 16.4177L 209.089 33.2149C 209.089 36.8408 209.668 39.5831 211.26 41.2436C 212.599 42.7589 214.716 43.5885 217.322 43.5885C 219.494 43.5885 221.214 43.2824 222.299 42.8309L 222.046 38.6274C 221.34 38.8255 220.254 39.0068 218.788 39.0068C 215.657 39.0068 214.572 36.8408 214.572 33.0348L 214.572 16.4177L 222.625 16.4177L 222.625 12.1602L 214.572 12.1602L 214.572 3.3018L 209.089 4.76299ZM 251.163 42.957C 250.783 40.8642 250.656 38.248 250.656 35.5778L 250.656 24.0491C 250.656 17.8789 248.359 11.4566 238.912 11.4566C 235.021 11.4566 231.312 12.5396 228.76 14.1809L 230.045 17.8789C 232.198 16.4718 235.202 15.5881 238.079 15.5881C 244.395 15.5881 245.101 20.171 245.101 22.7152L 245.101 23.3455C 233.157 23.2915 226.515 27.3689 226.515 34.8021C 226.515 39.259 229.718 43.6605 235.98 43.6605C 240.378 43.6605 243.689 41.4958 245.426 39.0789L 245.607 39.0789L 246.06 42.957L 251.163 42.957ZM 245.227 32.5833C 245.227 33.1608 245.101 33.7924 244.901 34.3699C 244.015 36.9681 241.463 39.5111 237.446 39.5111C 234.568 39.5111 232.144 37.7978 232.144 34.1706C 232.144 28.1997 239.093 27.1167 245.227 27.2428L 245.227 32.5833ZM 259.722 42.957L 265.26 42.957L 265.26 26.5392C 265.26 25.5835 265.405 24.6986 265.532 23.923C 266.292 19.7195 269.097 16.7431 273.06 16.7431C 273.82 16.7431 274.399 16.7971 274.978 16.9232L 274.978 11.6367C 274.453 11.5107 274.019 11.4566 273.367 11.4566C 269.604 11.4566 266.22 14.0549 264.826 18.2043L 264.572 18.2043L 264.373 12.1602L 259.451 12.1602C 259.65 15.0106 259.722 18.1323 259.722 21.7582L 259.722 42.957ZM 279.648 43.6605C 282 43.6605 283.466 41.9472 283.466 39.6564C 283.466 37.2923 281.945 35.633 279.702 35.633C 277.476 35.633 275.865 37.2923 275.865 39.6564C 275.865 41.9472 277.404 43.6605 279.648 43.6605ZM 296.043 42.957L 296.043 12.1602L 290.433 12.1602L 290.433 42.957L 296.043 42.957ZM 293.238 7.03508e-06C 291.193 7.03508e-06 289.728 1.51522 289.728 3.4999C 289.728 5.41254 291.121 6.92777 293.112 6.92777C 295.337 6.92777 296.749 5.41254 296.676 3.4999C 296.676 1.51522 295.337 7.03508e-06 293.238 7.03508e-06ZM 318.465 11.4566C 309.904 11.4566 303.137 17.5007 303.137 27.8023C 303.137 37.5444 309.579 43.6605 317.958 43.6605C 325.413 43.6605 333.34 38.6995 333.34 27.2969C 333.34 17.8789 327.332 11.4566 318.465 11.4566ZM 318.338 15.6601C 324.98 15.6601 327.585 22.2637 327.585 27.4962C 327.585 34.4239 323.567 39.4571 318.212 39.4571C 312.71 39.4571 308.819 34.3699 308.819 27.6222C 308.819 21.7582 311.696 15.6601 318.338 15.6601Z" transform="translate(139.188 24.7876)" fill="#FDF396"/>
</g>
<g id="Vector_2">
<path d="M 35.5703 28.5323L 35.5703 1.17251e-06L 41.7038 1.17251e-06L 41.7038 4.89867L 52.7424 4.89867L 52.7424 9.3747L 45.7924 9.3747L 45.7924 15.0814L 52.7424 15.0814L 52.7424 19.5646L 41.7038 19.5646L 41.7038 38.3164L 34.0023 38.3164L 17.1722 9.25223L 17.1722 38.3164L 11.0386 38.3164L 11.0386 33.4238L -5.88038e-07 33.4238L -5.88038e-07 28.9405L 6.95003 28.9405L 6.95003 22.8256L -5.88038e-07 22.8256L -5.88038e-07 18.3424L 11.0386 18.3424L 11.0386 1.17251e-06L 19.0436 1.17251e-06L 35.5703 28.5323Z" transform="translate(29.8909 31.5054)" fill="#FDF396"/>
</g>
<g id="Vector_3">
<path fill-rule="evenodd" clip-rule="evenodd" d="M 103.731 49.9868L 80.7738 10.346L 34.8646 10.346L 11.9094 49.9868L 34.8646 89.6264L 80.7738 89.6264L 103.731 49.9868ZM 86.8652 -1.75877e-06L 115.819 49.9988L 86.8652 100L 28.9551 100L 1.61711e-06 49.9988L 28.9551 -1.75877e-06L 86.8652 -1.75877e-06Z" fill="#FDF396"/>
</g>
</g>
</g>
</svg>

